<svg width="200" height="50" viewBox="0 0 200 50" fill="none" xmlns="http://www.w3.org/2000/svg">
    <path d="M146.5 39.62L146.49 41.13C146.11 40.95 145.54 40.83 145.05 40.83C144.4 40.83 144.1 41.05 144.1 41.4C144.1 41.75 144.47 42.05 145.25 42.61C146.4 43.48 146.98 44.06 146.98 44.99C146.98 46.33 145.74 47.12 144.17 47.12C143.58 47.12 142.75 47.01 142.35 46.85L142.36 45.31C142.79 45.49 143.5 45.68 144.16 45.68C144.79 45.68 145.15 45.37 145.15 45.02C145.15 44.66 144.73 44.32 143.9 43.73C142.62 42.82 142.24 42.26 142.24 41.4C142.24 40.36 143.08 39.39 144.97 39.39C145.47 39.39 146.07 39.46 146.5 39.62Z" fill="white"/>
    <path d="M135.687 47V39.54H140.007V41.11H137.467V42.48H139.747V43.91H137.467V45.43H140.087V47H135.687Z" fill="white"/>
    <path d="M133.367 39.66V41.36C132.947 41.09 132.427 40.96 131.877 40.96C130.527 40.96 129.477 42.01 129.477 43.25C129.477 44.52 130.527 45.58 131.877 45.58C132.427 45.58 132.947 45.45 133.367 45.18V46.89C132.887 47.12 132.347 47.22 131.767 47.22C129.407 47.22 127.687 45.45 127.687 43.26C127.687 41.08 129.407 39.32 131.767 39.32C132.347 39.32 132.887 39.43 133.367 39.66Z" fill="white"/>
    <path d="M124.078 47L122.368 44.6H122.348V47H120.568V39.54H122.648C124.318 39.54 125.908 40.09 125.908 42.07C125.908 43.17 125.178 43.9 124.248 44.28L126.208 47H124.078ZM122.788 41.12H122.348V43.2H122.808C123.598 43.2 124.148 42.8 124.148 42.1C124.148 41.45 123.678 41.12 122.788 41.12Z" fill="white"/>
    <path d="M118.129 43.78C118.129 45.99 117.029 47.24 115.039 47.24C113.059 47.24 111.949 45.99 111.949 43.78V39.54H113.729V44.1C113.729 45.09 114.359 45.63 115.039 45.63C115.729 45.63 116.349 45.09 116.349 44.1V39.54H118.129V43.78Z" fill="white"/>
    <path d="M105.637 39.3C107.947 39.3 109.767 41.07 109.767 43.26C109.767 45.46 107.947 47.24 105.637 47.24C103.307 47.24 101.497 45.46 101.497 43.26C101.497 41.07 103.307 39.3 105.637 39.3ZM105.637 40.93C104.307 40.93 103.287 41.97 103.287 43.27C103.287 44.56 104.307 45.61 105.637 45.61C106.957 45.61 107.977 44.56 107.977 43.27C107.977 41.97 106.957 40.93 105.637 40.93Z" fill="white"/>
    <path d="M99.0923 39.62L99.0823 41.13C98.7023 40.95 98.1323 40.83 97.6423 40.83C96.9923 40.83 96.6923 41.05 96.6923 41.4C96.6923 41.75 97.0623 42.05 97.8423 42.61C98.9923 43.48 99.5723 44.06 99.5723 44.99C99.5723 46.33 98.3323 47.12 96.7623 47.12C96.1723 47.12 95.3423 47.01 94.9423 46.85L94.9523 45.31C95.3823 45.49 96.0923 45.68 96.7523 45.68C97.3823 45.68 97.7423 45.37 97.7423 45.02C97.7423 44.66 97.3223 44.32 96.4923 43.73C95.2123 42.82 94.8323 42.26 94.8323 41.4C94.8323 40.36 95.6723 39.39 97.5623 39.39C98.0623 39.39 98.6623 39.46 99.0923 39.62Z" fill="white"/>
    <path d="M88.2786 47V39.54H92.5986V41.11H90.0586V42.48H92.3386V43.91H90.0586V45.43H92.6786V47H88.2786Z" fill="white"/>
    <path d="M84.0288 47L82.3188 44.6H82.2988V47H80.5188V39.54H82.5988C84.2688 39.54 85.8588 40.09 85.8588 42.07C85.8588 43.17 85.1288 43.9 84.1988 44.28L86.1588 47H84.0288ZM82.7388 41.12H82.2988V43.2H82.7588C83.5488 43.2 84.0988 42.8 84.0988 42.1C84.0988 41.45 83.6288 41.12 82.7388 41.12Z" fill="white"/>
    <path d="M73.1836 47L69.9336 42.55V47H68.1536V39.54H69.8636L73.1036 44V39.54H74.8836V47H73.1836Z" fill="white"/>
    <path d="M64.2555 47L63.8555 45.89H60.8755L60.4755 47H58.6255L61.5155 39.54H63.2755L66.1655 47H64.2555ZM61.3855 44.49H63.3555L62.3755 41.76L61.3855 44.49Z" fill="white"/>
    <path d="M50.3316 42.81V47H48.5716V39.54H50.4016L52.6716 42.77L54.8216 39.54H56.6316V47H54.8716V42.82L54.8816 42.47L52.7316 45.57H52.5616L50.3216 42.44L50.3316 42.81Z" fill="white"/>
    <path d="M46.1324 43.78C46.1324 45.99 45.0324 47.24 43.0424 47.24C41.0624 47.24 39.9524 45.99 39.9524 43.78V39.54H41.7324V44.1C41.7324 45.09 42.3624 45.63 43.0424 45.63C43.7324 45.63 44.3524 45.09 44.3524 44.1V39.54H46.1324V43.78Z" fill="white"/>
    <path d="M31.47 47V39.54H33.25V42.22H35.73V39.54H37.51V47H35.73V43.83H33.25V47H31.47Z" fill="white"/>
    <path d="M8.95398 29.8319H0V3.3247H10.0553L16.4519 12.0288L22.5986 3.3247H32.3701V29.8319H23.4161V23.0096L23.6999 15.6536L16.6586 24.8929H15.7701L8.6748 15.6181L8.95861 23.0096L8.95398 29.8319Z" fill="white"/>
    <path d="M52.9064 27.0955H44.4136L43.4881 29.8319H33.9341L44.3426 3.3247H53.3691L63.8147 29.8319H53.7887L52.9064 27.0955ZM50.8086 20.5293L48.7417 14.162L46.6162 20.5293H50.8086Z" fill="white"/>
    <path d="M74.8972 21.9067H74.5779V29.8319H65.3756V3.3247H74.8263C79.9796 3.3247 87.2986 3.67946 87.2986 13.0592C87.2986 15.9019 85.6636 18.0336 83.461 19.4912L89.893 29.8257H79.0557L74.8972 21.9067ZM74.5779 10.892V16.1518H75.36C77.2109 16.1518 78.3446 15.5117 78.3446 13.3754C78.3446 11.1712 76.7096 10.8874 75.36 10.8874L74.5779 10.892Z" fill="white"/>
    <path d="M91.454 3.3247H100.723C108.646 3.3247 115.685 6.40962 115.685 16.542C115.649 26.8472 109.04 29.8319 101.08 29.8319H91.454V3.3247ZM100.693 21.41H101.688C104.388 21.41 106.448 19.9894 106.448 16.542C106.448 13.1671 104.388 11.7805 101.688 11.745H100.693V21.41Z" fill="white"/>
    <path d="M118.031 3.3247H135.582V11.674H127.268V13.2797H134.624V19.8522H127.268V21.4872H135.868V29.838H118.031V3.3247Z" fill="white"/>
    <path d="M147.768 18.7447V29.8319H138.531V3.3247H147.237L155.799 14.2052V3.3247H165.043V29.8319H156.515L147.768 18.7447Z" fill="white"/>
    <path d="M171.006 3.3247H180.28L174.809 15.3698H168.056L171.006 3.3247Z" fill="white"/>
    <path d="M198.897 11.3547C197.335 10.3599 195.059 9.79069 192.892 9.79069C192.112 9.79069 191.365 10.0745 191.365 10.6082C191.365 11.3547 192.573 12.2077 194.1 13.5219C198.791 17.5323 200 19.0655 200 22.5114C200 28.1969 194.244 30.2237 189.203 30.2576C186.289 30.2576 183.625 29.9028 181.777 28.9079V21.4455C184.051 22.5823 185.863 23.2579 188.208 23.2579C189.24 23.2579 190.377 22.9371 190.377 22.3324C190.377 21.4795 188.706 20.3427 186.503 18.6012C182.168 15.2618 181.208 13.5558 181.208 10.4262C181.208 6.44663 184.91 2.78638 191.868 2.78638C194 2.78638 196.772 2.92828 198.903 4.0296L198.897 11.3547Z" fill="white"/>
</svg>
